PathFileType	4	(X/Y/Z)	C:/Users/opensim2020/Desktop/walking_exp_matlab/subject01_walking05_straight_01.trc																																																																																																																															
DataRate	CameraRate	NumFrames	NumMarkers	Units	OrigDataRate	OrigDataStartFrame	OrigNumFrames																																																																																																																											
100	100	4	43	mm	100	755	239																																																																																																																											
Frame#	Time	LFHD			RFHD			LBHD			RBHD			C7			T10			CLAV			STRN			RBAK			LSHO			LUPA			LELB			LFRM			LWRA			LWRB			LFIN			RSHO			RUPA			RELB			RFRM			RWRA			RWRB			RFIN			LASI			RASI			LPSI			RPSI			LTHI			LKNE			LTIB			LANK			LHEE			LTOE			RTHI			RKNE			RTIB			RANK			RHEE			RTOE			*39			*40			*41			*42		
		X1	Y1	Z1	X2	Y2	Z2	X3	Y3	Z3	X4	Y4	Z4	X5	Y5	Z5	X6	Y6	Z6	X7	Y7	Z7	X8	Y8	Z8	X9	Y9	Z9	X10	Y10	Z10	X11	Y11	Z11	X12	Y12	Z12	X13	Y13	Z13	X14	Y14	Z14	X15	Y15	Z15	X16	Y16	Z16	X17	Y17	Z17	X18	Y18	Z18	X19	Y19	Z19	X20	Y20	Z20	X21	Y21	Z21	X22	Y22	Z22	X23	Y23	Z23	X24	Y24	Z24	X25	Y25	Z25	X26	Y26	Z26	X27	Y27	Z27	X28	Y28	Z28	X29	Y29	Z29	X30	Y30	Z30	X31	Y31	Z31	X32	Y32	Z32	X33	Y33	Z33	X34	Y34	Z34	X35	Y35	Z35	X36	Y36	Z36	X37	Y37	Z37	X38	Y38	Z38	X39	Y39	Z39	X40	Y40	Z40	X41	Y41	Z41	X42	Y42	Z42	X43	Y43	Z43
																																																																																																																																		
1	0	-1035.89343	1672.03674	-1071.3894	-1015.33826	1685.55457	-959.67535	-1140.67664	1604.51843	-1052.93494	-1121.67749	1616.76123	-933.92047	-1155.64001	1434.74438	-999.09326	-1199.43701	1143.82703	-986.61609	-1011.11261	1363.66211	-1006.82562	-975.26782	1206.35999	-1012.5863	-1209.42639	1244.63403	-913.60333	-1085.24768	1392.65833	-1162.93945	-1134.40686	1212.45117	-1243.7157	-1162.27075	1063.29175	-1243.41772	-1130.56177	953.56366	-1270.9248	-1053.29382	837.91418	-1265.47424	-1111.69385	831.62048	-1277.52551	-1065.87781	761.59503	-1293.24866	-1063.12219	1394.40027	-851.63159	-1104.60535	1194.7218	-742.42163	-1094.10608	1068.09888	-737.48615	-1041.20056	956.21271	-717.73438	-942.60236	859.36053	-754.36035	-981.27136	849.99316	-710.94177	-928.07184	783.38458	-719.3548	-1045.98682	932.01648	-1104.43457	-1039.3457	924.67249	-887.10248	-1228.77344	953.54346	-1051.0979	-1225.22327	956.70178	-906.32593	-1003.22766	618.40967	-1175.11829	-987.70795	485.68585	-1163.83557	-1087.79187	325.67682	-1172.41357	-1173.75183	123.48109	-1127.79578	-1215.11768	100.7792	-1067.38391	-1054.45935	47.89939	-1161.0293	-1137.70032	597.45349	-849.3526	-1146.53296	440.73486	-881.98096	-1207.50256	275.39514	-884.44678	-1232.35229	72.15121	-945.16144	-1279.19141	36.79278	-999.35071	-1091.8988	29.32658	-940.28339	-1036.19897	1715.56433	-981.48633	1973.19507	1023.41736	-3101.9375	2012.57312	1022.00842	-3140.67041	NaN	NaN	NaN
2	0.01	-1028.58167	1671.70313	-1071.6698	-1007.8302	1685.2821	-960.06555	-1133.34045	1604.02295	-1053.12537	-1114.3667	1616.52991	-934.19159	-1148.19922	1434.63831	-999.28656	-1191.9563	1143.60449	-986.75592	-1003.65631	1363.38733	-1006.46869	-967.7179	1206.12988	-1011.91699	-1202.34204	1244.39539	-914.01111	-1077.323	1392.22998	-1163.00415	-1127.36401	1211.89063	-1243.56262	-1154.82092	1062.77612	-1242.42554	-1124.8324	953.03784	-1269.82727	-1049.07117	836.27502	-1263.76489	-1107.46912	830.8725	-1276.18689	-1062.66602	760.33362	-1291.92664	-1056.38806	1394.32092	-851.38	-1097.85852	1194.59131	-742.22614	-1086.68762	1067.87341	-736.99774	-1032.53064	956.63049	-717.30511	-932.37653	861.25049	-753.58636	-970.92908	851.13281	-710.55505	-917.41119	785.37573	-719.15369	-1037.97131	932.2218	-1104.09265	-1032.67346	924.11639	-886.70618	-1221.14954	953.56879	-1051.79895	-1218.4989	956.89557	-907.05237	-992.70013	619.42554	-1175.29822	-976.18231	486.56921	-1162.99939	-1069.56116	322.17267	-1172.6438	-1146.51855	116.19305	-1127.92896	-1187.61536	91.77992	-1067.93591	-1023.45172	46.96313	-1160.22815	-1133.67688	597.38092	-849.79523	-1144.58521	440.89182	-882.25311	-1206.33752	276.05548	-884.84399	-1231.62695	72.22403	-945.53961	-1278.83875	37.73503	-999.83643	-1091.81201	29.30472	-940.17035	-1029.02405	1715.41748	-981.98468	1973.16309	1023.47601	-3101.98901	2012.53357	1022.0282	-3140.66968	NaN	NaN	NaN
3	0.02	-1021.4184	1671.40845	-1072.11255	-1001.00934	1685.55554	-960.32111	-1125.80713	1603.46008	-1053.42834	-1107.25732	1616.02002	-934.50598	-1140.60815	1434.39172	-999.61548	-1184.42175	1143.36938	-986.9577	-996.11188	1363.07361	-1006.34308	-960.12555	1205.86255	-1011.26154	-1195.10669	1244.10767	-914.50964	-1069.07336	1391.72766	-1163.17786	-1120.2074	1211.27649	-1243.30115	-1147.96936	1062.42627	-1241.78809	-1118.92236	952.30902	-1268.73401	-1044.59375	834.69452	-1262.21252	-1102.96094	830.13239	-1275.06873	-1059.07629	759.16309	-1290.73694	-1049.08533	1394.11255	-851.56213	-1091.11096	1194.54578	-742.06647	-1079.51392	1067.81702	-736.39386	-1024.11047	957.24164	-716.9679	-922.58636	863.0611	-753.26685	-961.01642	852.33142	-710.42828	-906.38031	787.37366	-718.9502	-1030.07654	932.28925	-1103.73877	-1026.09265	923.58795	-886.39496	-1213.50024	953.55042	-1052.49573	-1211.67712	956.93005	-907.82092	-982.80371	620.1424	-1175.45154	-965.14111	487.26514	-1162.36328	-1051.28638	318.6452	-1172.73901	-1118.59216	109.15475	-1128.35071	-1158.95447	82.8841	-1068.42346	-992.12042	46.36946	-1158.72424	-1129.56702	597.41028	-850.13129	-1142.02637	441.0658	-882.54187	-1205.14233	276.79385	-885.24939	-1232.33533	73.53216	-945.66162	-1277.73425	38.07381	-1000.54498	-1091.87695	29.32561	-940.12469	-1022.01813	1715.14966	-982.42676	1973.08203	1023.73334	-3101.89722	2012.5293	1022.01959	-3140.6311	NaN	NaN	NaN
4	0.03	-1014.16095	1671.0675	-1072.44592	-994.13434	1685.35327	-960.86639	-1118.3656	1602.7948	-1053.82837	-1099.9668	1615.60339	-934.93964	-1132.86572	1434.01111	-1000.07959	-1176.7959	1143.08423	-987.34668	-988.63397	1362.66125	-1005.77545	-952.48254	1205.52844	-1010.72961	-1187.79041	1243.89063	-915.02649	-1061.02527	1391.12683	-1163.22351	-1112.96753	1210.5979	-1242.98328	-1141.05859	1061.9552	-1241.19202	-1112.89429	951.73962	-1268.04297	-1039.92419	833.19012	-1260.82263	-1098.27466	829.45477	-1274.11035	-1055.15894	758.05054	-1289.64893	-1042.11365	1393.94385	-851.51392	-1084.18408	1194.40417	-742.07178	-1072.33472	1067.69751	-736.01703	-1015.54498	957.54614	-716.67041	-912.93494	864.92468	-753.1156	-951.22925	853.5946	-710.27838	-895.79852	789.55981	-718.93903	-1022.0929	932.11633	-1103.47412	-1019.41736	922.83307	-886.28632	-1205.82324	953.47369	-1053.28259	-1204.76929	957.04559	-908.70227	-973.44855	620.58093	-1175.63965	-954.69733	487.66898	-1161.83484	-1033.18225	315.31027	-1173.01196	-1090.25122	102.32971	-1128.7439	-1130.29468	74.58353	-1069.34302	-960.06989	45.8407	-1156.76563	-1125.0304	597.30273	-850.55402	-1139.36792	441.24298	-882.80084	-1203.85132	277.49341	-885.56543	-1231.95557	74.19416	-946.00043	-1277.75476	39.18205	-1000.98901	-1091.72705	29.19407	-939.98492	-1015.1734	1714.84717	-982.79181	1972.95239	1023.9502	-3102.06006	2012.49768	1021.99188	-3140.75757	NaN	NaN	NaN
